<svg xmlns="http://www.w3.org/2000/svg" width="28" height="29" viewBox="0 0 28 29">
    <g fill="none" fill-rule="nonzero">
        <circle cx="13.9" cy="14.148" r="13.9" fill="#0F92D5"/>
        <path fill="#F1F2F2" d="M22.206 15.266v5.731h-3.323v-5.346c0-1.343-.48-2.26-1.683-2.26-.918 0-1.463.617-1.704 1.215-.087.214-.11.51-.11.81v5.581h-3.323s.045-9.056 0-9.993h3.323v1.416c-.006.011-.016.022-.022.033h.022v-.033c.442-.68 1.23-1.65 2.995-1.65 2.186 0 3.825 1.428 3.825 4.496zM8.587 6.187c-1.136 0-1.88.746-1.88 1.726 0 .96.722 1.727 1.837 1.727h.021c1.16 0 1.88-.767 1.88-1.727-.022-.98-.72-1.726-1.858-1.726zm-1.682 14.81h3.321v-9.993H6.905v9.993z"/>
    </g>
</svg>
