<svg xmlns="http://www.w3.org/2000/svg" width="28" height="28" viewBox="0 0 28 28">
    <g fill="none" fill-rule="nonzero">
        <path fill="#F4B459" d="M13.967 0c7.714 0 13.968 6.254 13.968 13.967 0 7.715-6.254 13.968-13.968 13.968C6.254 27.935 0 21.682 0 13.967 0 6.254 6.253 0 13.967 0z"/>
        <path fill="#FFF" d="M10.476 15.71a1.748 1.748 0 1 0 0 3.496 1.748 1.748 0 0 0 0-3.496zm-.516-4.36a1.227 1.227 0 1 0 0 2.455 4.179 4.179 0 0 1 4.174 4.174 1.228 1.228 0 0 0 2.456 0 6.636 6.636 0 0 0-6.63-6.629zm.024-4.365a1.256 1.256 0 0 0 0 2.51c4.662 0 8.456 3.793 8.456 8.456a1.255 1.255 0 1 0 2.511 0c0-6.047-4.92-10.966-10.967-10.966z"/>
    </g>
</svg>
