<svg xmlns="http://www.w3.org/2000/svg" width="28" height="28" viewBox="0 0 28 28">
    <g fill="none" fill-rule="nonzero">
        <ellipse cx="13.9" cy="14.024" fill="#DC4E41" rx="13.9" ry="13.778"/>
        <path fill="#DC4E41" d="M4.84 14.64c-.05 2.371 1.598 4.634 3.864 5.371 2.134.711 4.758.18 6.179-1.632 1.037-1.27 1.272-2.963 1.16-4.544-1.828-.016-3.656-.01-5.481-.008-.003.646 0 1.289.003 1.934 1.094.03 2.189.016 3.283.038-.276.939-.905 1.812-1.86 2.151-1.845.806-4.198-.247-4.778-2.165-.7-1.836.446-4.052 2.34-4.586 1.173-.41 2.383.051 3.387.656.51-.472.985-.977 1.453-1.486-1.141-.947-2.608-1.527-4.115-1.4-2.959.035-5.548 2.742-5.435 5.672zM19.6 12.2c-.005.539-.01 1.082-.013 1.621-.548.006-1.092.008-1.637.011v1.617c.545.002 1.092.005 1.637.01.005.54.005 1.08.01 1.623.542 0 1.087-.003 1.631 0 .003-.543.006-1.082.012-1.625l1.636-.008v-1.617c-.544-.002-1.092-.005-1.636-.01l-.012-1.623H19.6z"/>
        <g fill="#FFF">
            <path d="M4.84 14.64c-.113-2.929 2.476-5.636 5.434-5.671 1.508-.128 2.975.453 4.116 1.4-.468.51-.944 1.014-1.453 1.486-1.005-.605-2.214-1.066-3.388-.657-1.894.535-3.04 2.75-2.34 4.587.58 1.918 2.934 2.97 4.778 2.165.955-.34 1.585-1.213 1.861-2.151-1.094-.022-2.19-.008-3.284-.038-.002-.646-.005-1.289-.002-1.934 1.825-.003 3.653-.008 5.48.008.113 1.581-.122 3.274-1.16 4.543-1.42 1.812-4.044 2.344-6.179 1.633-2.265-.737-3.913-3-3.863-5.37zM19.6 12.2h1.628l.012 1.621c.544.006 1.091.008 1.636.011v1.617l-1.636.008c-.006.542-.009 1.082-.012 1.624-.544-.002-1.089 0-1.63 0-.006-.542-.006-1.082-.011-1.622-.545-.005-1.092-.008-1.637-.01v-1.617c.545-.003 1.09-.006 1.637-.011.002-.54.008-1.082.013-1.622z"/>
        </g>
    </g>
</svg>
