<svg xmlns="http://www.w3.org/2000/svg" width="28" height="28" viewBox="0 0 28 28">
    <g fill="none" fill-rule="evenodd">
        <path fill="#F05A28" fill-rule="nonzero" d="M24.8.5H3.2A2.708 2.708 0 0 0 .5 3.2v21.6c0 1.485 1.215 2.7 2.7 2.7h21.6c1.485 0 2.7-1.215 2.7-2.7V3.2c0-1.485-1.215-2.7-2.7-2.7zm-1.35 2.7v4.05h-2.7c-.81 0-1.35.54-1.35 1.35v2.7h4.05v4.05H19.4v9.45h-4.05v-9.45h-2.7V11.3h2.7V7.925c0-2.565 2.16-4.725 4.725-4.725h3.375z"/>
        <path d="M-4-4h36v36H-4z"/>
    </g>
</svg>
