<svg xmlns="http://www.w3.org/2000/svg" width="28" height="28" viewBox="0 0 28 28">
    <g fill="none" fill-rule="evenodd">
        <path fill="#F99351" fill-rule="nonzero" d="M24.8.5H3.2A2.708 2.708 0 0 0 .5 3.2v21.6c0 1.485 1.215 2.7 2.7 2.7h21.6c1.485 0 2.7-1.215 2.7-2.7V3.2c0-1.485-1.215-2.7-2.7-2.7zM8.6 23.45H4.55V11.3H8.6v12.15zM6.575 9.005a2.42 2.42 0 0 1-2.43-2.43 2.42 2.42 0 0 1 2.43-2.43 2.42 2.42 0 0 1 2.43 2.43 2.42 2.42 0 0 1-2.43 2.43zM23.45 23.45H19.4v-7.155c0-1.08-.945-2.025-2.025-2.025s-2.025.945-2.025 2.025v7.155H11.3V11.3h4.05v1.62c.675-1.08 2.16-1.89 3.375-1.89 2.565 0 4.725 2.16 4.725 4.725v7.695z"/>
        <path d="M-4-4h36v36H-4z"/>
    </g>
</svg>
