<svg xmlns="http://www.w3.org/2000/svg" width="30" height="30" viewBox="0 0 30 30">
    <g fill="none" fill-rule="evenodd">
        <path fill="#F99351" fill-rule="nonzero" d="M27 0H9C7.35 0 6 1.35 6 3v18c0 1.65 1.35 3 3 3h18c1.65 0 3-1.35 3-3V3c0-1.65-1.35-3-3-3zM14.25 11.25A2.247 2.247 0 0 1 12 13.5h-1.5v3H8.25v-9H12a2.247 2.247 0 0 1 2.25 2.25v1.5zm7.5 3a2.247 2.247 0 0 1-2.25 2.25h-3.75v-9h3.75a2.247 2.247 0 0 1 2.25 2.25v4.5zm6-4.5H25.5v1.5h2.25v2.25H25.5v3h-2.25v-9h4.5v2.25zm-17.25 1.5H12v-1.5h-1.5v1.5zM3 6H0v21c0 1.65 1.35 3 3 3h21v-3H3V6zm15 8.25h1.5v-4.5H18v4.5z"/>
        <path d="M-3-3h36v36H-3z"/>
    </g>
</svg>
