<svg xmlns="http://www.w3.org/2000/svg" width="28" height="30" viewBox="0 0 28 30">
    <g fill="none" fill-rule="evenodd">
        <path fill="#F05A28" fill-rule="nonzero" d="M23 21.12c-1.14 0-2.16.45-2.94 1.155L9.365 16.05A4.91 4.91 0 0 0 9.5 15c0-.36-.06-.705-.135-1.05L19.94 7.785A4.48 4.48 0 0 0 23 9c2.49 0 4.5-2.01 4.5-4.5S25.49 0 23 0s-4.5 2.01-4.5 4.5c0 .36.06.705.135 1.05L8.06 11.715A4.48 4.48 0 0 0 5 10.5C2.51 10.5.5 12.51.5 15s2.01 4.5 4.5 4.5a4.48 4.48 0 0 0 3.06-1.215l10.68 6.24c-.075.315-.12.645-.12.975A4.385 4.385 0 0 0 23 29.88a4.385 4.385 0 0 0 4.38-4.38A4.385 4.385 0 0 0 23 21.12z"/>
        <path d="M-4-3h36v36H-4z"/>
    </g>
</svg>
