<svg xmlns="http://www.w3.org/2000/svg" width="28" height="28" viewBox="0 0 28 28">
    <g fill="none" fill-rule="evenodd">
        <path fill="#F99351" fill-rule="nonzero" d="M24.765.5H3.196A2.704 2.704 0 0 0 .5 3.196v21.57a2.704 2.704 0 0 0 2.696 2.695h21.57a2.704 2.704 0 0 0 2.695-2.696V3.196A2.704 2.704 0 0 0 24.765.5zm-3.1 9.84c-.135 6.202-4.045 10.516-9.976 10.785-2.427.135-4.18-.674-5.797-1.617 1.753.27 4.044-.405 5.258-1.483-1.753-.135-2.831-1.079-3.37-2.562.539.135 1.078 0 1.482 0-1.617-.539-2.696-1.482-2.83-3.64.404.27.943.405 1.482.405-1.213-.674-2.022-3.235-1.078-4.853 1.752 1.887 3.91 3.505 7.414 3.775-.943-3.775 4.18-5.797 6.201-3.236.944-.134 1.618-.539 2.292-.808-.27.943-.809 1.482-1.483 2.022.674-.135 1.348-.27 1.887-.54-.134.674-.808 1.214-1.482 1.753z"/>
        <path d="M-4-4h36v36H-4z"/>
    </g>
</svg>
