<svg xmlns="http://www.w3.org/2000/svg" width="28" height="28" viewBox="0 0 28 28">
    <g fill="none" fill-rule="evenodd">
        <path fill="#F99351" fill-rule="nonzero" d="M20.413 16.646c.337.175.553.27.62.405.081.149.054.824-.283 1.593-.27.756-1.674 1.485-2.295 1.512-.621.027-.634.486-3.996-.985-3.361-1.472-5.386-5.063-5.548-5.293-.162-.229-1.296-1.863-1.242-3.523.067-1.647.931-2.43 1.282-2.754.324-.351.688-.391.918-.351h.635c.202 0 .486-.081.742.607l.931 2.525c.082.175.136.378.014.594l-.365.553-.526.567c-.162.163-.351.338-.162.675.162.351.837 1.472 1.782 2.403 1.228 1.189 2.309 1.58 2.632 1.756.325.189.527.162.73-.055l1.093-1.268c.256-.338.473-.257.783-.149l2.255 1.188zM14 .5A13.5 13.5 0 0 1 27.5 14c0 7.456-6.044 13.5-13.5 13.5-2.66 0-5.13-.77-7.223-2.093L.5 27.5l2.093-6.277A13.458 13.458 0 0 1 .5 14C.5 6.544 6.544.5 14 .5zm0 2.7C8.035 3.2 3.2 8.035 3.2 14c0 2.322.729 4.468 1.971 6.224l-1.296 3.901 3.902-1.296A10.733 10.733 0 0 0 14 24.8c5.965 0 10.8-4.835 10.8-10.8 0-5.965-4.835-10.8-10.8-10.8z"/>
        <path d="M-4-4h36v36H-4z"/>
    </g>
</svg>
