<svg xmlns="http://www.w3.org/2000/svg" width="18" height="19" viewBox="0 0 18 19">
    <path fill="#FFF" fill-rule="evenodd" d="M6.528 11.616c.816 0 1.568-.204 2.256-.612a4.529 4.529 0 0 0 1.632-1.644c.4-.688.6-1.44.6-2.256 0-.816-.2-1.568-.6-2.256a4.436 4.436 0 0 0-1.632-1.632c-.688-.4-1.44-.6-2.256-.6-.816 0-1.568.2-2.256.6-.688.4-1.236.944-1.644 1.632a4.343 4.343 0 0 0-.612 2.256c0 .816.204 1.568.612 2.256a4.625 4.625 0 0 0 1.644 1.644c.688.408 1.44.612 2.256.612zm6 0l4.968 4.968-1.512 1.512-4.968-4.992v-.792l-.288-.264a5.935 5.935 0 0 1-1.932 1.14 6.602 6.602 0 0 1-2.268.396 6.449 6.449 0 0 1-3.276-.864 6.408 6.408 0 0 1-2.364-2.328A6.378 6.378 0 0 1 0 7.104a6.38 6.38 0 0 1 .876-3.276 6.416 6.416 0 0 1 2.376-2.364C4.252.888 5.344.6 6.528.6c1.184 0 2.28.296 3.288.888a6.343 6.343 0 0 1 2.316 2.352c.568.992.852 2.08.852 3.264 0 .8-.132 1.564-.396 2.292a5.935 5.935 0 0 1-1.14 1.932l.264.288h.816z"/>
</svg>
