<svg xmlns="http://www.w3.org/2000/svg" width="18" height="21" viewBox="0 0 18 21">
    <g fill="none" fill-rule="evenodd">
        <path fill="#F99351" d="M15.984 18.616V7.6H2.016v11.016h13.968zm0-16.032c.544 0 1.016.2 1.416.6.4.4.6.872.6 1.416v14.016c0 .544-.2 1.008-.6 1.392-.4.384-.872.576-1.416.576H2.016c-.56 0-1.036-.192-1.428-.576A1.877 1.877 0 0 1 0 18.616V4.6c0-.544.196-1.016.588-1.416.392-.4.868-.6 1.428-.6H3V.616h2.016v1.968h7.968V.616H15v1.968h.984zm-1.968 7.032v1.968H12V9.616h2.016zm-4.032 0v1.968H8.016V9.616h1.968zM6 9.616v1.968H3.984V9.616H6z"/>
        <path d="M-3-1h24v24H-3z"/>
    </g>
</svg>
