<svg xmlns="http://www.w3.org/2000/svg" width="20" height="14" viewBox="0 0 20 14">
    <g fill="none" fill-rule="evenodd">
        <path fill="#888C8F" d="M10 4.5c.44 0 .853.113 1.24.34.387.227.693.533.92.92.227.387.34.8.34 1.24 0 .44-.113.853-.34 1.24a2.536 2.536 0 0 1-.92.92c-.387.227-.8.34-1.24.34-.44 0-.853-.113-1.24-.34a2.536 2.536 0 0 1-.92-.92c-.227-.387-.34-.8-.34-1.24 0-.44.113-.853.34-1.24.227-.387.533-.693.92-.92.387-.227.8-.34 1.24-.34zm0 6.68c.76 0 1.46-.187 2.1-.56a4.155 4.155 0 0 0 1.52-1.52c.373-.64.56-1.34.56-2.1s-.187-1.46-.56-2.1a4.155 4.155 0 0 0-1.52-1.52 4.094 4.094 0 0 0-2.1-.56c-.76 0-1.46.187-2.1.56-.64.373-1.147.88-1.52 1.52S5.82 6.24 5.82 7s.187 1.46.56 2.1c.373.64.88 1.147 1.52 1.52s1.34.56 2.1.56zM10 .74a9.752 9.752 0 0 1 7.09 3A9.785 9.785 0 0 1 19.18 7a9.677 9.677 0 0 1-2.09 3.25A9.817 9.817 0 0 1 10 13.24 9.817 9.817 0 0 1 .82 7a9.785 9.785 0 0 1 2.09-3.26 9.752 9.752 0 0 1 7.09-3z"/>
        <path d="M0-4h20v20H0z"/>
    </g>
</svg>
