<svg xmlns="http://www.w3.org/2000/svg" width="20" height="20" viewBox="0 0 20 20">
    <g fill="none" fill-rule="evenodd">
        <path fill="#0078AC" fill-rule="nonzero" d="M4.529 2.278c0 1.181-.872 2.138-2.307 2.138C.872 4.416 0 3.46 0 2.278 0 1.068.9.14 2.278.14c1.379 0 2.223.929 2.25 2.138zM.112 19.86V6.104h4.276V19.86H.112zM6.947 10.492c0-1.716-.056-3.15-.112-4.388h3.713l.197 1.913h.085c.562-.9 1.94-2.223 4.247-2.223C17.89 5.794 20 7.68 20 11.73v8.13h-4.276v-7.624c0-1.772-.619-2.981-2.166-2.981-1.182 0-1.884.815-2.194 1.603-.113.281-.14.675-.14 1.07v7.932H6.946v-9.368z"/>
        <path d="M-2-2h25v25H-2z"/>
    </g>
</svg>
