<svg xmlns="http://www.w3.org/2000/svg" width="14" height="19" viewBox="0 0 14 19">
    <g fill="none" fill-rule="evenodd">
        <path fill="#888C8F" d="M9.58 6.68V5a2.5 2.5 0 0 0-.35-1.28c-.233-.4-.55-.717-.95-.95A2.5 2.5 0 0 0 7 2.42a2.5 2.5 0 0 0-1.28.35c-.4.233-.717.55-.95.95A2.5 2.5 0 0 0 4.42 5v1.68h5.16zM7 14.18c.453 0 .847-.167 1.18-.5.333-.333.5-.727.5-1.18 0-.453-.167-.847-.5-1.18a1.614 1.614 0 0 0-1.18-.5c-.453 0-.847.167-1.18.5-.333.333-.5.727-.5 1.18 0 .453.167.847.5 1.18.333.333.727.5 1.18.5zm5-7.5c.453 0 .847.16 1.18.48.333.32.5.707.5 1.16v8.36c0 .453-.167.84-.5 1.16-.333.32-.727.48-1.18.48H2c-.453 0-.847-.16-1.18-.48a1.55 1.55 0 0 1-.5-1.16V8.32c0-.453.167-.84.5-1.16.333-.32.727-.48 1.18-.48h.82V5c0-.76.187-1.46.56-2.1.373-.64.88-1.147 1.52-1.52S6.24.82 7 .82s1.46.187 2.1.56c.64.373 1.147.88 1.52 1.52s.56 1.34.56 2.1v1.68H12z"/>
        <path d="M-3-1h20v20H-3z"/>
    </g>
</svg>
