<svg xmlns="http://www.w3.org/2000/svg" width="14" height="14" viewBox="0 0 14 14">
    <g fill="none" fill-rule="evenodd">
        <path fill="#888C8F" d="M7 8.68c.827 0 1.733.12 2.72.36 1.12.28 2.027.653 2.72 1.12.827.547 1.24 1.16 1.24 1.84v1.68H.32V12c0-.68.413-1.293 1.24-1.84.693-.467 1.6-.84 2.72-1.12.987-.24 1.893-.36 2.72-.36zM7 7a3.2 3.2 0 0 1-1.66-.45c-.507-.3-.91-.703-1.21-1.21a3.2 3.2 0 0 1-.45-1.66c0-.6.15-1.16.45-1.68.3-.52.703-.93 1.21-1.23A3.2 3.2 0 0 1 7 .32c.6 0 1.153.15 1.66.45.507.3.91.71 1.21 1.23.3.52.45 1.08.45 1.68a3.2 3.2 0 0 1-.45 1.66c-.3.507-.703.91-1.21 1.21A3.2 3.2 0 0 1 7 7z"/>
        <path d="M-3-3h20v20H-3z"/>
    </g>
</svg>
