<svg xmlns="http://www.w3.org/2000/svg" width="20" height="21" viewBox="0 0 20 21">
    <g fill="none" fill-rule="evenodd">
        <path fill="#F99351" d="M10.528 5.584v5.256l4.488 2.664-.744 1.272-5.256-3.192v-6h1.512zM10 18.616c1.44 0 2.784-.368 4.032-1.104a7.772 7.772 0 0 0 2.88-2.88 7.802 7.802 0 0 0 1.104-4.032c0-1.44-.368-2.784-1.104-4.032a7.772 7.772 0 0 0-2.88-2.88A7.802 7.802 0 0 0 10 2.584c-1.44 0-2.784.368-4.032 1.104a7.772 7.772 0 0 0-2.88 2.88A7.802 7.802 0 0 0 1.984 10.6c0 1.44.368 2.784 1.104 4.032a7.772 7.772 0 0 0 2.88 2.88A7.802 7.802 0 0 0 10 18.616zm0-18c1.824 0 3.512.456 5.064 1.368a9.463 9.463 0 0 1 3.552 3.552 9.819 9.819 0 0 1 1.368 5.064 9.819 9.819 0 0 1-1.368 5.064 9.463 9.463 0 0 1-3.552 3.552A9.819 9.819 0 0 1 10 20.584a9.819 9.819 0 0 1-5.064-1.368 9.642 9.642 0 0 1-3.552-3.576A9.775 9.775 0 0 1 .016 10.6c0-1.808.456-3.488 1.368-5.04A9.826 9.826 0 0 1 4.96 1.984 9.775 9.775 0 0 1 10 .616z"/>
        <path d="M-2-1h24v24H-2z"/>
    </g>
</svg>
