<svg xmlns="http://www.w3.org/2000/svg" width="21" height="18" viewBox="0 0 21 18">
    <g fill="none" fill-rule="evenodd">
        <path fill="#3FBEF7" fill-rule="nonzero" d="M21 2.018a8.603 8.603 0 0 1-2.474.679A4.326 4.326 0 0 0 20.42.315a8.685 8.685 0 0 1-2.737 1.046 4.308 4.308 0 0 0-7.34 3.928A12.23 12.23 0 0 1 1.462.786 4.275 4.275 0 0 0 .88 2.953c0 1.494.762 2.813 1.916 3.585a4.308 4.308 0 0 1-1.95-.541v.054A4.312 4.312 0 0 0 4.3 10.275c-.36.097-.741.15-1.135.15-.278 0-.547-.027-.81-.08a4.31 4.31 0 0 0 4.023 2.993 8.643 8.643 0 0 1-5.35 1.84c-.348 0-.69-.02-1.028-.058a12.177 12.177 0 0 0 6.603 1.938c7.925 0 12.257-6.564 12.257-12.256l-.015-.558A8.603 8.603 0 0 0 21 2.018z"/>
        <path d="M-3-4h25v25H-3z"/>
    </g>
</svg>
